<?xml version="1.0" encoding="UTF-8"?>
<mxfile host="app.diagrams.net">
  <diagram name="Regional High Availability Architecture">
    <mxGraphModel dx="1422" dy="827" grid="1" gridSize="10" guides="1" tooltips="1" connect="1" arrows="1" fold="1" page="1" pageScale="1" pageWidth="827" pageHeight="1169">
      <root>
        <mxCell id="0"/>
        <mxCell id="1" parent="0"/>
        <mxCell id="2" value="AWS Region" style="swimlane" vertex="1" parent="1">
          <mxGeometry x="20" y="20" width="780" height="500" as="geometry"/>
        </mxCell>

        <!-- AZ A -->
        <mxCell id="3" value="AZ A" style="swimlane" vertex="1" parent="2">
          <mxGeometry x="20" y="40" width="350" height="200" as="geometry"/>
        </mxCell>
        <mxCell id="4" value="EC2 Instance A" style="rounded=1;whiteSpace=wrap;html=1;" vertex="1" parent="3">
          <mxGeometry x="100" y="60" width="120" height="60" as="geometry"/>
        </mxCell>
        <mxCell id="5" value="RDS (Primary)" style="ellipse;whiteSpace=wrap;html=1;" vertex="1" parent="3">
          <mxGeometry x="100" y="130" width="120" height="60" as="geometry"/>
        </mxCell>

        <!-- AZ B -->
        <mxCell id="6" value="AZ B" style="swimlane" vertex="1" parent="2">
          <mxGeometry x="400" y="40" width="350" height="200" as="geometry"/>
        </mxCell>
        <mxCell id="7" value="EC2 Instance B" style="rounded=1;whiteSpace=wrap;html=1;" vertex="1" parent="6">
          <mxGeometry x="100" y="60" width="120" height="60" as="geometry"/>
        </mxCell>
        <mxCell id="8" value="RDS (Standby)" style="ellipse;whiteSpace=wrap;html=1;" vertex="1" parent="6">
          <mxGeometry x="100" y="130" width="120" height="60" as="geometry"/>
        </mxCell>

        <!-- ELB -->
        <mxCell id="9" value="Elastic Load Balancer" style="rhombus;whiteSpace=wrap;html=1;" vertex="1" parent="2">
          <mxGeometry x="300" y="300" width="180" height="60" as="geometry"/>
        </mxCell>
      </root>
    </mxGraphModel>
  </diagram>
</mxfile>
